<?xml version="1.0" encoding="UTF-8"?>
<svg version="1.1" xmlns="http://www.w3.org/2000/svg" width="512" height="512">
<path d="M0 0 C1.30582031 -0.02835938 2.61164063 -0.05671875 3.95703125 -0.0859375 C13.34925759 0.47635149 21.85222964 6.20397929 29.8125 10.75 C30.90006592 11.36504395 31.98763184 11.98008789 33.1081543 12.61376953 C41.42992286 17.33454745 49.7004371 22.14245336 57.95361328 26.98193359 C65.6666378 31.50241049 73.41953644 35.9499756 81.1875 40.375 C90.90892984 45.91453103 100.59645304 51.50875187 110.25439453 57.15844727 C120.77834625 63.31266742 131.34130137 69.39869996 141.90527344 75.48388672 C148.40967941 79.23151605 154.91125795 82.98404961 161.4128418 86.73657227 C166.96436292 89.94032462 172.51770797 93.14084577 178.07421875 96.3359375 C184.45184919 100.00438143 190.82223998 103.68513833 197.1875 107.375 C198.00476563 107.84728027 198.82203125 108.31956055 199.6640625 108.80615234 C211.64465891 115.74874099 222.05364572 121.85778145 226.2500639 135.94096565 C227.39089677 140.67296613 227.46919649 145.22883138 227.44819641 150.07736206 C227.45202196 151.02452595 227.45584751 151.97168984 227.45978898 152.94755566 C227.47006667 156.10555662 227.46613677 159.26337398 227.4621582 162.42138672 C227.46650757 164.69202848 227.47169147 166.96266877 227.47764587 169.23330688 C227.49102293 175.3903496 227.49161597 181.54733087 227.48908257 187.70438528 C227.48801199 192.8484786 227.49289849 197.99255954 227.497688 203.1366502 C227.50941249 215.96815725 227.50856066 228.79962021 227.50213119 241.63112785 C227.49696324 252.75925712 227.50821618 263.88729882 227.52722941 275.01541077 C227.54662955 286.45823054 227.5545689 297.90099279 227.55110615 309.34383214 C227.54929463 315.76150834 227.55191659 322.17910433 227.56582069 328.59676743 C227.57840927 334.63294931 227.576445 340.66895611 227.56340981 346.70513535 C227.56104674 348.91659606 227.563769 351.12806915 227.57203293 353.33951569 C227.58252477 356.36610248 227.57437992 359.39210444 227.5617218 362.41867065 C227.56909609 363.28678529 227.57647037 364.15489992 227.58406812 365.04932106 C227.51318563 373.14545307 225.77562786 380.95500195 221 387.625 C220.47019531 388.39328125 219.94039063 389.1615625 219.39453125 389.953125 C213.43497274 396.49281752 205.63410049 400.58215838 197.99163818 404.86404419 C194.8657288 406.61565961 191.75029685 408.38579255 188.6328125 410.15234375 C188.00174591 410.50920761 187.37067932 410.86607147 186.7204895 411.23374939 C180.80365172 414.58244262 174.9285335 418.00064008 169.0625 421.4375 C157.5592811 428.1679441 146.01825952 434.83156131 134.46972656 441.48388672 C129.04090058 444.61180148 123.61430719 447.74358448 118.1875 450.875 C116.02084417 452.12501879 113.8541775 453.37501878 111.6875 454.625 C110.615 455.24375 109.5425 455.8625 108.4375 456.5 C72.68749999 477.12500001 72.68749999 477.12500001 69.43408203 479.00195312 C67.27878689 480.2454051 65.12351327 481.48889436 62.96826172 482.73242188 C57.96412326 485.61962875 52.9597948 488.5065043 47.95465088 491.39196777 C46.20408759 492.40119104 44.45359589 493.41053836 42.703125 494.41992188 C40.52357835 495.6766766 38.34390168 496.93320586 36.1640625 498.18945312 C35.16375 498.76630859 34.1634375 499.34316406 33.1328125 499.9375 C32.15473633 500.49953125 31.17666016 501.0615625 30.16894531 501.640625 C28.10542483 502.84102211 26.05331014 504.0611622 24.01074219 505.296875 C15.83357256 510.21486207 10.06846835 512.65487273 0.375 512.75 C-0.93082031 512.77835938 -2.23664063 512.80671875 -3.58203125 512.8359375 C-12.97425759 512.27364851 -21.47722964 506.54602071 -29.4375 502 C-30.52506592 501.38495605 -31.61263184 500.76991211 -32.7331543 500.13623047 C-41.05492286 495.41545255 -49.3254371 490.60754664 -57.57861328 485.76806641 C-65.2916378 481.24758951 -73.04453644 476.8000244 -80.8125 472.375 C-90.53392984 466.83546897 -100.22145304 461.24124813 -109.87939453 455.59155273 C-120.40334625 449.43733258 -130.96630137 443.35130004 -141.53027344 437.26611328 C-148.03467941 433.51848395 -154.53625795 429.76595039 -161.0378418 426.01342773 C-166.58936292 422.80967538 -172.14270797 419.60915423 -177.69921875 416.4140625 C-184.07684919 412.74561857 -190.44723998 409.06486167 -196.8125 405.375 C-197.62976563 404.90271973 -198.44703125 404.43043945 -199.2890625 403.94384766 C-211.26965891 397.00125901 -221.67864572 390.89221855 -225.8750639 376.80903435 C-227.01589677 372.07703387 -227.09419649 367.52116862 -227.07319641 362.67263794 C-227.07702196 361.72547405 -227.08084751 360.77831016 -227.08478898 359.80244434 C-227.09506667 356.64444338 -227.09113677 353.48662602 -227.0871582 350.32861328 C-227.09150757 348.05797152 -227.09669147 345.78733123 -227.10264587 343.51669312 C-227.11602293 337.3596504 -227.11661597 331.20266913 -227.11408257 325.04561472 C-227.11301199 319.9015214 -227.11789849 314.75744046 -227.122688 309.6133498 C-227.13441249 296.78184275 -227.13356066 283.95037979 -227.12713119 271.11887215 C-227.12196324 259.99074288 -227.13321618 248.86270118 -227.15222941 237.73458923 C-227.17162955 226.29176946 -227.1795689 214.84900721 -227.17610615 203.40616786 C-227.17429463 196.98849166 -227.17691659 190.57089567 -227.19082069 184.15323257 C-227.20340927 178.11705069 -227.201445 172.08104389 -227.18840981 166.04486465 C-227.18604674 163.83340394 -227.188769 161.62193085 -227.19703293 159.41048431 C-227.20752477 156.38389752 -227.19937992 153.35789556 -227.1867218 150.33132935 C-227.19409609 149.46321471 -227.20147037 148.59510008 -227.20906812 147.70067894 C-227.13818563 139.60454693 -225.40062786 131.79499805 -220.625 125.125 C-219.83029297 123.97257812 -219.83029297 123.97257812 -219.01953125 122.796875 C-213.05997274 116.25718248 -205.25910049 112.16784162 -197.61663818 107.88595581 C-194.4907288 106.13434039 -191.37529685 104.36420745 -188.2578125 102.59765625 C-187.62674591 102.24079239 -186.99567932 101.88392853 -186.3454895 101.51625061 C-180.42865172 98.16755738 -174.5535335 94.74935992 -168.6875 91.3125 C-157.1842811 84.5820559 -145.64325952 77.91843869 -134.09472656 71.26611328 C-128.66590058 68.13819852 -123.23930719 65.00641552 -117.8125 61.875 C-115.64584417 60.62498121 -113.4791775 59.37498122 -111.3125 58.125 C-110.24 57.50625 -109.1675 56.8875 -108.0625 56.25 C-72.3125 35.625 -72.3125 35.625 -69.05908203 33.74804688 C-66.90378689 32.5045949 -64.74851327 31.26110564 -62.59326172 30.01757812 C-57.58912326 27.13037125 -52.5847948 24.2434957 -47.57965088 21.35803223 C-45.82908759 20.34880896 -44.07859589 19.33946164 -42.328125 18.33007812 C-40.14857835 17.0733234 -37.96890168 15.81679414 -35.7890625 14.56054688 C-34.28859375 13.69526367 -34.28859375 13.69526367 -32.7578125 12.8125 C-31.77973633 12.25046875 -30.80166016 11.6884375 -29.79394531 11.109375 C-27.73042483 9.90897789 -25.67831014 8.6888378 -23.63574219 7.453125 C-15.45857256 2.53513793 -9.69346835 0.09512727 0 0 Z " fill="#FE4B55" transform="translate(255.8125,-0.375)"/>
<path d="M0 0 C65.01 0 130.02 0 197 0 C197 81.60807601 197 81.60807601 190.8125 90.25 C190.28269531 91.01828125 189.75289062 91.7865625 189.20703125 92.578125 C183.24747274 99.11781752 175.44660049 103.20715838 167.80413818 107.48904419 C164.6782288 109.24065961 161.56279685 111.01079255 158.4453125 112.77734375 C157.81424591 113.13420761 157.18317932 113.49107147 156.5329895 113.85874939 C150.61615172 117.20744262 144.7410335 120.62564008 138.875 124.0625 C127.3717811 130.7929441 115.83075952 137.45656131 104.28222656 144.10888672 C98.85340058 147.23680148 93.42680719 150.36858448 88 153.5 C85.83334417 154.75001879 83.6666775 156.00001878 81.5 157.25 C79.89125 158.178125 79.89125 158.178125 78.25 159.125 C68.5 164.75 68.5 164.75 65.24902344 166.62548828 C63.08552524 167.87371034 60.92211357 169.12208239 58.75878906 170.37060547 C53.29434983 173.52405256 47.82836355 176.67476096 42.359375 179.8203125 C30.72234912 186.51761651 19.11239792 193.25306717 7.58691406 200.14111328 C6.73194336 200.65013184 5.87697266 201.15915039 4.99609375 201.68359375 C3.86965454 202.35733032 3.86965454 202.35733032 2.72045898 203.04467773 C1 204 1 204 0 204 C0 136.68 0 69.36 0 0 Z " fill="#F4F4F4" transform="translate(286,297)"/>
<path d="M0 0 C65.01 0 130.02 0 197 0 C197 67.32 197 134.64 197 204 C192.38 201.36 187.76 198.72 183 196 C178.55297643 193.51259066 178.55297643 193.51259066 174.10229492 191.03173828 C163.74301969 185.26724121 153.45878852 179.38971707 143.23291016 173.39208984 C135.51981861 168.87261207 127.76757824 164.4248049 120 160 C110.27857016 154.46046897 100.59104696 148.86624813 90.93310547 143.21655273 C83.67788233 138.97382703 76.40643103 134.76008204 69.125 130.5625 C68.05258057 129.94415283 66.98016113 129.32580566 65.87524414 128.6887207 C60.28707093 125.46781494 54.696881 122.25043538 49.10546875 119.03515625 C42.73056675 115.36780302 36.36274346 111.68840285 30 108 C29.18273437 107.52771973 28.36546875 107.05543945 27.5234375 106.56884766 C16.62339568 100.25242534 7.4457368 94.90306557 2 83 C-4.71210009 56.15159965 0 27.67469763 0 0 Z " fill="#F4F4F4" transform="translate(29,297)"/>
<path d="M0 0 C0 67.32 0 134.64 0 204 C-65.01 204 -130.02 204 -197 204 C-197 122.39192399 -197 122.39192399 -190.8125 113.75 C-190.01779297 112.59757812 -190.01779297 112.59757812 -189.20703125 111.421875 C-183.24747274 104.88218248 -175.44660049 100.79284162 -167.80413818 96.51095581 C-164.6782288 94.75934039 -161.56279685 92.98920745 -158.4453125 91.22265625 C-157.81424591 90.86579239 -157.18317932 90.50892853 -156.5329895 90.14125061 C-150.61615172 86.79255738 -144.7410335 83.37435992 -138.875 79.9375 C-127.3717811 73.2070559 -115.83075952 66.54343869 -104.28222656 59.89111328 C-98.85340058 56.76319852 -93.42680719 53.63141552 -88 50.5 C-85.83334417 49.24998121 -83.6666775 47.99998122 -81.5 46.75 C-80.4275 46.13125 -79.355 45.5125 -78.25 44.875 C-68.5 39.25 -68.5 39.25 -65.24902344 37.37451172 C-63.08552524 36.12628966 -60.92211357 34.87791761 -58.75878906 33.62939453 C-53.29434983 30.47594744 -47.82836355 27.32523904 -42.359375 24.1796875 C-30.72234912 17.48238349 -19.11239792 10.74693283 -7.58691406 3.85888672 C-6.73194336 3.34986816 -5.87697266 2.84084961 -4.99609375 2.31640625 C-4.24513428 1.86724854 -3.4941748 1.41809082 -2.72045898 0.95532227 C-1 0 -1 0 0 0 Z " fill="#F4F4F4" transform="translate(226,11)"/>
<path d="M0 0 C6.93 3.96 6.93 3.96 14 8 C18.44726163 10.48754233 18.44726163 10.48754233 22.89819336 12.96850586 C34.31696603 19.32267404 45.63636596 25.83021427 56.91015625 32.4375 C63.21570419 36.1321331 69.54294436 39.78852681 75.875 43.4375 C77.49523071 44.37130493 77.49523071 44.37130493 79.14819336 45.32397461 C81.33796334 46.58576826 83.52782355 47.84740534 85.71777344 49.10888672 C91.14659942 52.23680148 96.57319281 55.36858448 102 58.5 C104.16665583 59.75001879 106.3333225 61.00001878 108.5 62.25 C112.83333333 64.75 117.16666667 67.25 121.5 69.75 C122.57338623 70.3692334 123.64677246 70.9884668 124.75268555 71.62646484 C126.91049803 72.87141282 129.06821353 74.1165289 131.22583008 75.36181641 C136.77716592 78.56552651 142.33036541 81.7659363 147.88671875 84.9609375 C154.26434919 88.62938143 160.63473998 92.31013833 167 96 C167.81726563 96.47228027 168.63453125 96.94456055 169.4765625 97.43115234 C180.37660432 103.74757466 189.5542632 109.09693443 195 121 C201.71210009 147.84840035 197 176.32530237 197 204 C131.99 204 66.98 204 0 204 C0 136.68 0 69.36 0 0 Z " fill="#F4F4F4" transform="translate(286,11)"/>
<path d="M0 0 C0 45.87 0 91.74 0 139 C-15.9384858 131.0307571 -15.9384858 131.0307571 -21.75 127.5 C-23.19330744 126.63814459 -24.63737044 125.77755369 -26.08203125 124.91796875 C-26.8601416 124.45438965 -27.63825195 123.99081055 -28.43994141 123.51318359 C-33.41549093 120.57226657 -38.42871849 117.69632138 -43.4375 114.8125 C-45.08177979 113.86503906 -45.08177979 113.86503906 -46.75927734 112.8984375 C-49.02052938 111.59562079 -51.28192448 110.29305236 -53.54345703 108.99072266 C-58.19792587 106.31007999 -62.85131656 103.62757119 -67.50415039 100.9440918 C-69.67632342 99.69132046 -71.84867314 98.4388554 -74.02124023 97.18676758 C-81.02718781 93.14671813 -88.01786181 89.08105435 -95 85 C-93.90303373 81.7091012 -93.15198144 81.03203283 -90.5625 78.875 C-87.32723567 76.13168105 -84.14411801 73.34768648 -81 70.5 C-78.04130249 67.82951656 -75.07073528 65.17701942 -72.0625 62.5625 C-68.83440488 59.75177475 -65.66261557 56.884201 -62.5 54 C-58.71337002 50.54671847 -54.8952368 47.13900949 -51.02734375 43.77734375 C-48.66510827 41.70640513 -46.33204147 39.60487152 -44 37.5 C-40.38323655 34.23609152 -36.73610392 31.01209051 -33.0625 27.8125 C-30.69035571 25.72788836 -28.34443935 23.61571356 -26 21.5 C-22.39140604 18.24346399 -18.75413051 15.02501958 -15.0859375 11.8359375 C-11.71964012 8.87309149 -8.41276778 5.84447831 -5.1015625 2.8203125 C-1.84549356 0 -1.84549356 0 0 0 Z " fill="#42489B" transform="translate(206,350)"/>
<path d="M0 0 C5.62167523 3.37300514 5.62167523 3.37300514 8.26953125 5.890625 C9.13143066 6.70225098 9.13143066 6.70225098 10.01074219 7.53027344 C10.60532227 8.0977832 11.19990234 8.66529297 11.8125 9.25 C13.06302042 10.42791374 14.31431635 11.60500471 15.56640625 12.78125 C16.16211426 13.34199219 16.75782227 13.90273438 17.37158203 14.48046875 C19.88616085 16.82690632 22.47508171 19.08105344 25.078125 21.328125 C27.41105074 23.35758073 29.70511245 25.427647 32 27.5 C34.98062721 30.18983431 37.97245233 32.86310364 41 35.5 C46.58979989 40.37143203 52.07534898 45.3589515 57.578125 50.328125 C62.00121401 54.31704577 66.44615005 58.27567907 70.9375 62.1875 C73.30964429 64.27211164 75.65556065 66.38428644 78 68.5 C85.36150819 75.34308985 85.36150819 75.34308985 93.2265625 81.5703125 C93.81179688 82.04210937 94.39703125 82.51390625 95 83 C95 83.66 95 84.32 95 85 C94.2879541 85.40613525 93.5759082 85.81227051 92.84228516 86.23071289 C71.30021412 98.52102768 49.78508165 110.85567486 28.375 123.375 C21.46043887 127.41588194 14.53635606 131.4371417 7.5625 135.375 C6.89976074 135.75060059 6.23702148 136.12620117 5.55419922 136.51318359 C1.1226419 139 1.1226419 139 0 139 C0 93.13 0 47.26 0 0 Z " fill="#42489B" transform="translate(306,350)"/>
<path d="M0 0 C0 45.87 0 91.74 0 139 C-5.62167523 135.62699486 -5.62167523 135.62699486 -8.26953125 133.109375 C-9.13143066 132.29774902 -9.13143066 132.29774902 -10.01074219 131.46972656 C-10.60532227 130.9022168 -11.19990234 130.33470703 -11.8125 129.75 C-13.06302042 128.57208626 -14.31431635 127.39499529 -15.56640625 126.21875 C-16.16211426 125.65800781 -16.75782227 125.09726563 -17.37158203 124.51953125 C-19.88616085 122.17309368 -22.47508171 119.91894656 -25.078125 117.671875 C-27.41105074 115.64241927 -29.70511245 113.572353 -32 111.5 C-34.98062721 108.81016569 -37.97245233 106.13689636 -41 103.5 C-46.58979989 98.62856797 -52.07534898 93.6410485 -57.578125 88.671875 C-62.00121401 84.68295423 -66.44615005 80.72432093 -70.9375 76.8125 C-73.30964429 74.72788836 -75.65556065 72.61571356 -78 70.5 C-85.36150819 63.65691015 -85.36150819 63.65691015 -93.2265625 57.4296875 C-93.81179687 56.95789063 -94.39703125 56.48609375 -95 56 C-95 55.34 -95 54.68 -95 54 C-94.2879541 53.59386475 -93.5759082 53.18772949 -92.84228516 52.76928711 C-71.30021412 40.47897232 -49.78508165 28.14432514 -28.375 15.625 C-21.46043887 11.58411806 -14.53635606 7.5628583 -7.5625 3.625 C-6.89976074 3.24939941 -6.23702148 2.87379883 -5.55419922 2.48681641 C-1.1226419 0 -1.1226419 0 0 0 Z " fill="#42489B" transform="translate(206,23)"/>
<path d="M0 0 C15.9384858 7.9692429 15.9384858 7.9692429 21.75 11.5 C23.19330744 12.36185541 24.63737044 13.22244631 26.08203125 14.08203125 C26.8601416 14.54561035 27.63825195 15.00918945 28.43994141 15.48681641 C33.41549093 18.42773343 38.42871849 21.30367862 43.4375 24.1875 C44.53368652 24.81914063 45.62987305 25.45078125 46.75927734 26.1015625 C49.02052938 27.40437921 51.28192448 28.70694764 53.54345703 30.00927734 C58.19792587 32.68992001 62.85131656 35.37242881 67.50415039 38.0559082 C69.67632342 39.30867954 71.84867314 40.5611446 74.02124023 41.81323242 C81.02718781 45.85328187 88.01786181 49.91894565 95 54 C93.90303373 57.2908988 93.15198144 57.96796717 90.5625 60.125 C87.32723567 62.86831895 84.14411801 65.65231352 81 68.5 C77.38323655 71.76390848 73.73610392 74.98790949 70.0625 78.1875 C66.8248667 81.0326929 63.6331371 83.92853836 60.43359375 86.81640625 C58.32488854 88.70848685 56.20080199 90.57905758 54.0625 92.4375 C50.83440488 95.24822525 47.66261557 98.115799 44.5 101 C40.71337002 104.45328153 36.8952368 107.86099051 33.02734375 111.22265625 C30.66510827 113.29359487 28.33204147 115.39512848 26 117.5 C22.39065767 120.75721137 18.7542229 123.9780062 15.08203125 127.1640625 C13.50127804 128.55797246 11.93944036 129.97336863 10.38671875 131.3984375 C9.49597656 132.21570313 8.60523438 133.03296875 7.6875 133.875 C6.86636719 134.63554687 6.04523438 135.39609375 5.19921875 136.1796875 C3 138 3 138 0 139 C0 93.13 0 47.26 0 0 Z " fill="#42489B" transform="translate(306,23)"/>
<path d="M0 0 C31.35 0 62.7 0 95 0 C95.061875 7.71375 95.12375 15.4275 95.1875 23.375 C95.22846802 26.99734619 95.22846802 26.99734619 95.27026367 30.69287109 C95.27903677 32.63638816 95.28667875 34.57991081 95.29296875 36.5234375 C95.3159906 38.00130737 95.3159906 38.00130737 95.33947754 39.5090332 C95.34365187 50.71572876 92.37381396 59.4749999 85 68 C83.04222738 69.65854973 81.27217006 70.7807868 79 72 C78.5875 71.57589844 78.175 71.15179688 77.75 70.71484375 C74.0210421 66.92762088 70.18273517 63.34728392 66.16015625 59.875 C61.17922244 55.55158548 56.31677619 51.0921191 51.421875 46.671875 C46.99878599 42.68295423 42.55384995 38.72432093 38.0625 34.8125 C34.82624923 31.96852205 31.63591332 29.07387299 28.4375 26.1875 C26.30582519 24.27445851 24.1598089 22.38112388 22 20.5 C18.1174084 17.11838796 14.29588914 13.67151588 10.4765625 10.21875 C7.48694035 7.54035035 4.45107564 4.91870489 1.3984375 2.3125 C0.93695313 1.879375 0.47546875 1.44625 0 1 C0 0.67 0 0.34 0 0 Z " fill="#42489B" transform="translate(388,324)"/>
<path d="M0 0 C31.35 0 62.7 0 95 0 C88.27678571 7.84375 88.27678571 7.84375 85.25 10.375 C82.12194365 13.03742964 79.04595874 15.74368764 76 18.5 C72.38323655 21.76390848 68.73610392 24.98790949 65.0625 28.1875 C62.69035571 30.27211164 60.34443935 32.38428644 58 34.5 C55.01937279 37.18983431 52.02754767 39.86310364 49 42.5 C44.28298716 46.61081039 39.64361111 50.80667845 35 55 C32.46816849 57.28632058 29.93515005 59.57110177 27.39453125 61.84765625 C25.8206104 63.26238771 24.25518863 64.68664274 22.69921875 66.12109375 C21.99410156 66.76175781 21.28898437 67.40242188 20.5625 68.0625 C19.94503906 68.63097656 19.32757813 69.19945312 18.69140625 69.78515625 C17 71 17 71 14 71 C6.71682804 66.14455203 2.44900118 58.82802593 0.41296387 50.38056946 C-0.37321543 45.84856421 -0.24245487 41.30529436 -0.1953125 36.71875 C-0.19329834 35.78321289 -0.19128418 34.84767578 -0.18920898 33.88378906 C-0.17882392 30.42247545 -0.15090194 26.96123228 -0.125 23.5 C-0.08375 15.745 -0.0425 7.99 0 0 Z " fill="#42489B" transform="translate(29,324)"/>
<path d="M0 0 C6.10151717 2.16942833 9.73688173 9.32960076 12.4609375 14.875 C14.49552418 21.39799175 14.72618176 27.3524953 14.65625 34.15625 C14.65423584 35.09178711 14.65222168 36.02732422 14.65014648 36.99121094 C14.63976142 40.45252455 14.61183944 43.91376772 14.5859375 47.375 C14.5446875 55.13 14.5034375 62.885 14.4609375 70.875 C-16.8890625 70.875 -48.2390625 70.875 -80.5390625 70.875 C-73.81584821 63.03125 -73.81584821 63.03125 -70.7890625 60.5 C-67.66100615 57.83757036 -64.58502124 55.13131236 -61.5390625 52.375 C-57.92229905 49.11109152 -54.27516642 45.88709051 -50.6015625 42.6875 C-48.22941821 40.60288836 -45.88350185 38.49071356 -43.5390625 36.375 C-40.55843529 33.68516569 -37.56661017 31.01189636 -34.5390625 28.375 C-29.82204966 24.26418961 -25.18267361 20.06832155 -20.5390625 15.875 C-18.00637061 13.58790247 -15.47280741 11.30238165 -12.92578125 9.03125 C-11.36309775 7.61946393 -9.82271923 6.18249303 -8.30859375 4.71875 C-7.27798828 3.74421875 -7.27798828 3.74421875 -6.2265625 2.75 C-5.63230469 2.16992188 -5.03804688 1.58984375 -4.42578125 0.9921875 C-2.5390625 -0.125 -2.5390625 -0.125 0 0 Z " fill="#42489B" transform="translate(468.5390625,117.125)"/>
<path d="M0 0 C2.30453181 0.82376488 3.48680272 1.7468319 5.2434082 3.43579102 C5.8211499 3.98323975 6.3988916 4.53068848 6.99414062 5.09472656 C7.89869995 5.97124878 7.89869995 5.97124878 8.8215332 6.86547852 C10.0824833 8.06290305 11.34419586 9.25952521 12.60668945 10.45532227 C13.20884277 11.02879395 13.81099609 11.60226563 14.43139648 12.19311523 C16.3331181 13.98726701 18.279573 15.72012824 20.2590332 17.42797852 C23.41106548 20.14804063 26.49594848 22.93416523 29.5715332 25.74047852 C33.35816318 29.19376005 37.1762964 32.60146903 41.04418945 35.96313477 C43.40642493 38.03407338 45.73949173 40.13560699 48.0715332 42.24047852 C51.05216041 44.93031282 54.04398553 47.60358216 57.0715332 50.24047852 C60.95412481 53.62209056 64.77564406 57.06896263 68.5949707 60.52172852 C71.58459285 63.20012817 74.62045757 65.82177362 77.6730957 68.42797852 C78.13458008 68.86110352 78.59606445 69.29422852 79.0715332 69.74047852 C79.0715332 70.07047852 79.0715332 70.40047852 79.0715332 70.74047852 C47.7215332 70.74047852 16.3715332 70.74047852 -15.9284668 70.74047852 C-15.9903418 63.02672852 -16.0522168 55.31297852 -16.1159668 47.36547852 C-16.14327881 44.95058105 -16.17059082 42.53568359 -16.19873047 40.04760742 C-16.20750356 38.10409035 -16.21514555 36.16056771 -16.22143555 34.21704102 C-16.23678345 33.23179443 -16.25213135 32.24654785 -16.26794434 31.23144531 C-16.27120874 22.46760291 -14.78493072 14.48343293 -9.4909668 7.30297852 C-8.62665039 6.09834961 -8.62665039 6.09834961 -7.74487305 4.86938477 C-3.2204843 -0.43339344 -3.2204843 -0.43339344 0 0 Z " fill="#42489B" transform="translate(44.928466796875,117.259521484375)"/>
<path d="M0 0 C7.33333333 4 14.66666667 8 22 12 C20.42365096 16.32984184 17.07269874 18.73254651 13.625 21.5625 C12.3487445 22.63100444 11.07403165 23.70135389 9.80078125 24.7734375 C9.16092285 25.31194336 8.52106445 25.85044922 7.86181641 26.40527344 C5.11129763 28.76121216 2.46019487 31.21734096 -0.1875 33.6875 C-3.81204803 37.05663885 -7.5123854 40.27926947 -11.375 43.375 C-17.10522487 47.98571639 -22.43085078 52.97756638 -27.79296875 58.00390625 C-32.4639332 62.38116714 -37.29747541 66.5514289 -42.171875 70.69921875 C-49.00077584 76.51790473 -55.71100154 82.42733721 -62.30078125 88.515625 C-75.12192593 100.31627336 -75.12192593 100.31627336 -84.16796875 100.1953125 C-85.36018791 100.19106766 -85.36018791 100.19106766 -86.57649231 100.18673706 C-89.11364838 100.17554705 -91.65045072 100.15044491 -94.1875 100.125 C-95.90819802 100.11496866 -97.62890159 100.10584308 -99.34960938 100.09765625 C-103.56654243 100.07561161 -107.78321125 100.04109006 -112 100 C-108.60104229 95.85496523 -105.26330486 92.16573844 -101 88.875 C-96.41507139 85.22206916 -92.08755015 81.3854314 -87.8125 77.375 C-81.93562208 71.86738695 -75.96253924 66.52075976 -69.828125 61.30078125 C-68.63513685 60.28418244 -67.44243795 59.26724412 -66.25 58.25 C-65.64631592 57.73518066 -65.04263184 57.22036133 -64.4206543 56.68994141 C-60.47514717 53.3089801 -56.61880634 49.84897957 -52.8125 46.3125 C-49.18716792 42.94416553 -45.48767607 39.7207798 -41.625 36.625 C-35.89477513 32.01428361 -30.56914922 27.02243362 -25.20703125 21.99609375 C-21.55010177 18.56910677 -17.80785545 15.25812984 -14 12 C-12.80199415 10.97145803 -11.60408738 9.94280066 -10.40625 8.9140625 C-6.94040789 5.93930168 -3.47093348 2.9688181 0 0 Z " fill="#FE4D56" transform="translate(419,88)"/>
<path d="M0 0 C1.56047445 0.00015913 3.12095416 0.00585397 4.68139648 0.01586914 C5.5012352 0.01728409 6.32107391 0.01869904 7.16575623 0.02015686 C9.79470406 0.0257725 12.42356797 0.0383276 15.05249023 0.05102539 C16.8304838 0.05603838 18.60847869 0.06060163 20.38647461 0.06469727 C24.75434569 0.07574701 29.12215371 0.09302208 33.48999023 0.11352539 C24.83962131 8.79875264 15.90829828 17.07887895 6.33374023 24.73852539 C2.93363951 27.57816995 -0.28587421 30.57740638 -3.51000977 33.61352539 C-7.56877705 37.4356043 -11.65297785 41.12789986 -16.01000977 44.61352539 C-21.70632681 49.17394465 -26.98320042 54.13087203 -32.30297852 59.11743164 C-36.97394297 63.49469253 -41.80748517 67.66495429 -46.68188477 71.81274414 C-52.49646183 76.76715757 -58.26863577 81.74695135 -63.88500977 86.92602539 C-64.8530957 87.81418945 -65.82118164 88.70235352 -66.81860352 89.61743164 C-68.5150143 91.19073569 -70.19697029 92.77991139 -71.85766602 94.39086914 C-72.54731445 95.0418457 -73.23696289 95.69282227 -73.94750977 96.36352539 C-74.5237207 96.92555664 -75.09993164 97.48758789 -75.69360352 98.06665039 C-78.28532398 99.56037315 -79.66482444 98.87020697 -82.51000977 98.11352539 C-84.72998047 97.08203125 -84.72998047 97.08203125 -86.93579102 95.82836914 C-87.73178711 95.38041992 -88.5277832 94.9324707 -89.34790039 94.47094727 C-90.16452148 94.00237305 -90.98114258 93.53379883 -91.82250977 93.05102539 C-92.6584668 92.57858398 -93.49442383 92.10614258 -94.35571289 91.61938477 C-96.41070242 90.45684783 -98.46188714 89.28810448 -100.51000977 88.11352539 C-98.61698496 83.93491046 -95.75906314 81.31749084 -92.38500977 78.30102539 C-91.79389404 77.76477539 -91.20277832 77.22852539 -90.59375 76.67602539 C-88.90526515 75.14822751 -87.20948768 73.62907482 -85.51000977 72.11352539 C-84.80231445 71.4805957 -84.09461914 70.84766602 -83.36547852 70.19555664 C-80.38478078 67.56552922 -77.3616078 64.98636713 -74.33422852 62.41040039 C-73.14255291 61.39509145 -71.95115567 60.37945572 -70.76000977 59.36352539 C-69.85460449 58.59141724 -69.85460449 58.59141724 -68.9309082 57.80371094 C-64.98535146 54.42263185 -61.12890045 50.96258332 -57.32250977 47.42602539 C-53.69717769 44.05769092 -49.99768584 40.83430519 -46.13500977 37.73852539 C-40.4047849 33.127809 -35.07915898 28.13595901 -29.71704102 23.10961914 C-26.06013502 19.68265416 -22.31833213 16.37108508 -18.51000977 13.11352539 C-17.32374434 12.09667706 -16.13755388 11.07974127 -14.95141602 10.06274414 C-13.0247555 8.41100776 -11.09755774 6.75992857 -9.16821289 5.11132812 C-3.31523616 0.10722576 -3.31523616 0.10722576 0 0 Z " fill="#FE4D56" transform="translate(171.510009765625,323.886474609375)"/>
<path d="M0 0 C5.06759538 -0.24959741 10.13152548 -0.42971978 15.20385742 -0.54931641 C16.92389308 -0.59921917 18.64351298 -0.66717532 20.36206055 -0.75439453 C35.40480022 -1.4980019 35.40480022 -1.4980019 40.51977539 2.15185547 C43.24767167 4.63406672 45.62527818 7.18384114 48 10 C49.24850681 11.14972741 50.51475799 12.2811499 51.8125 13.375 C52.44285156 13.92414063 53.07320313 14.47328125 53.72265625 15.0390625 C55.53812332 16.60229487 57.35892026 18.15849996 59.18359375 19.7109375 C66.02420434 25.5366433 72.74386559 31.45780936 79.34375 37.5546875 C83.86298847 41.71504527 88.50178609 45.72685535 93.1796875 49.70703125 C100.01028292 55.52519415 106.72308805 61.43290105 113.30859375 67.52734375 C116.21797439 70.20025804 119.18033847 72.80064719 122.18359375 75.3671875 C124.54587271 77.49069848 126.76782623 79.74102483 129 82 C125.59850918 84.06779995 122.17679748 86.09946178 118.75 88.125 C117.78191406 88.71410156 116.81382812 89.30320312 115.81640625 89.91015625 C114.88183594 90.45800781 113.94726562 91.00585938 112.984375 91.5703125 C112.12553711 92.08352051 111.26669922 92.59672852 110.38183594 93.12548828 C108 94 108 94 105.83251953 93.25854492 C97.99527132 87.87604898 91.09795857 81.29957846 84.19384766 74.79956055 C80.73096024 71.55564566 77.20790999 68.46632799 73.5 65.5 C67.80368295 60.93958074 62.52680934 55.98265337 57.20703125 50.99609375 C52.5360668 46.61883286 47.70252459 42.4485711 42.828125 38.30078125 C35.98763084 32.47221698 29.26584576 26.55057458 22.6640625 20.453125 C18.15984814 16.30554932 13.56445225 12.28576213 8.84375 8.38671875 C8.29203125 7.93047119 7.7403125 7.47422363 7.171875 7.00415039 C6.07019738 6.09536288 4.96608109 5.18952239 3.859375 4.28686523 C2.55482981 3.21284293 1.27484408 2.10911435 0 1 C0 0.67 0 0.34 0 0 Z " fill="#FE4D56" transform="translate(322,324)"/>
<path d="M0 0 C2.2890625 1.75 2.2890625 1.75 4.625 4 C8.07151099 7.23301031 11.5535127 10.30589507 15.25 13.25 C20.32423006 17.3495192 25.0623033 21.73370862 29.80761719 26.20214844 C33.27026747 29.44518831 36.79268593 32.53414875 40.5 35.5 C46.19631705 40.06041926 51.47319066 45.01734663 56.79296875 50.00390625 C61.4639332 54.38116714 66.29747541 58.5514289 71.171875 62.69921875 C77.99791675 68.51546859 84.70971132 74.41744038 91.2890625 80.51171875 C94.3593979 83.32987963 97.49601934 86.05962619 100.671875 88.7578125 C101.11015625 89.16773438 101.5484375 89.57765625 102 90 C102 90.33 102 90.66 102 91 C97.01970985 91.17409588 92.04121999 91.30055003 87.05859375 91.38452148 C85.36687337 91.41955043 83.67536226 91.46719144 81.984375 91.52807617 C66.11431481 92.08483831 66.11431481 92.08483831 61.265625 87.83203125 C60.15136413 86.57706004 59.06097619 85.30033055 58 84 C56.8810403 83.00122604 55.74057612 82.02592647 54.578125 81.078125 C47.81116332 75.32951194 41.17812382 69.47012559 34.65625 63.4453125 C30.13701153 59.28495473 25.49821391 55.27314465 20.8203125 51.29296875 C15.06320922 46.38874 9.35363807 41.46063665 3.8125 36.3125 C0.12321482 32.88590993 -3.64373089 29.60137874 -7.5625 26.4375 C-11.52550926 23.23705229 -15.3949478 19.96159566 -19.1875 16.5625 C-20.10917969 15.73878906 -21.03085937 14.91507813 -21.98046875 14.06640625 C-24 12 -24 12 -24 10 C-21.11878897 7.8320144 -17.92913972 6.11974185 -14.8125 4.3125 C-13.94818359 3.78849609 -13.08386719 3.26449219 -12.19335938 2.72460938 C-11.35224609 2.23412109 -10.51113281 1.74363281 -9.64453125 1.23828125 C-8.87471924 0.78493408 -8.10490723 0.33158691 -7.31176758 -0.13549805 C-4.4305409 -1.21295329 -2.90235792 -0.9242852 0 0 Z " fill="#FE4D56" transform="translate(83,97)"/>
<path d="M0 0 C0.99 0.33 1.98 0.66 3 1 C1.73113036 2.12721436 0.45982438 3.25168658 -0.8125 4.375 C-1.52019531 5.00148438 -2.22789063 5.62796875 -2.95703125 6.2734375 C-5 8 -5 8 -8 10 C-6.56854369 4.98990293 -4.17048478 2.89380576 0 0 Z " fill="#6C70B1" transform="translate(43,117)"/>
</svg>
